<svg xmlns="http://www.w3.org/2000/svg" viewBox="0 0 32 32" fill="none">
  <defs>
    <linearGradient id="mars" x1="18" y1="2" x2="30" y2="14" gradientUnits="userSpaceOnUse">
      <stop stop-color="#E07A5F"/>
      <stop offset="1" stop-color="#9B3D2E"/>
    </linearGradient>
    <linearGradient id="moon" x1="10" y1="12" x2="22" y2="24" gradientUnits="userSpaceOnUse">
      <stop stop-color="#E8DDD0"/>
      <stop offset="1" stop-color="#A89888"/>
    </linearGradient>
    <linearGradient id="tide" x1="4" y1="16" x2="28" y2="16" gradientUnits="userSpaceOnUse">
      <stop stop-color="#E07A5F" stop-opacity="0.15"/>
      <stop offset="0.5" stop-color="#E07A5F" stop-opacity="0.55"/>
      <stop offset="1" stop-color="#E07A5F" stop-opacity="0.15"/>
    </linearGradient>
  </defs>
  <rect width="32" height="32" rx="8" fill="#1A1410"/>
  <circle cx="24.5" cy="7.5" r="6.5" fill="url(#mars)"/>
  <circle cx="22.8" cy="6.2" r="1.1" fill="#C45A42" opacity="0.45"/>
  <circle cx="25.8" cy="8.8" r="0.8" fill="#C45A42" opacity="0.35"/>
  <path d="M3 15.5C3 9.5 8.5 5 14 5C19.5 5 25 9.5 25 15.5" stroke="url(#tide)" stroke-width="1.6" stroke-linecap="round"/>
  <path d="M5 20C5 15.5 9 12.5 14 12.5C19 12.5 23 15.5 23 20" stroke="url(#tide)" stroke-width="1.4" stroke-linecap="round" opacity="0.85"/>
  <path d="M7 24C7 20.5 10 18.5 14 18.5C18 18.5 21 20.5 21 24" stroke="url(#tide)" stroke-width="1.2" stroke-linecap="round" opacity="0.65"/>
  <ellipse cx="14" cy="17.5" rx="5.2" ry="4.6" fill="url(#moon)"/>
  <ellipse cx="12.2" cy="16.2" rx="1.4" ry="1.1" fill="#8A7A6C" opacity="0.35"/>
  <circle cx="15.8" cy="18.6" r="0.7" fill="#8A7A6C" opacity="0.3"/>
</svg>
