<?xml version="1.0" encoding="utf-8" ?><svg xmlns="http://www.w3.org/2000/svg" xmlns:xlink="http://www.w3.org/1999/xlink" width="24" height="24"><circle fill="#1C1C1E" transform="matrix(1 0 0 1 3.75 3.75)" cx="2.25" cy="2.25" r="2.25"/><circle fill="#1C1C1E" transform="matrix(1 0 0 1 3.75 15.75)" cx="2.25" cy="2.25" r="2.25"/><circle fill="#1C1C1E" transform="matrix(1 0 0 1 15.75 9.75)" cx="2.25" cy="2.25" r="2.25"/><path fill="#1C1C1E" transform="matrix(1 0 0 1 8.2 6)" d="M0 -0.875L5.3 -0.875Q6.9051 -0.875 8.04 0.2599Q9.175 1.3949 9.175 3L9.175 5.9448Q9.1758 5.9721 9.175 6Q9.1758 6.0279 9.175 6.0552L9.175 9Q9.175 10.6051 8.04 11.7401Q6.9051 12.875 5.3 12.875L0 12.875Q-0.3668 12.8856 -0.6187 12.6187Q-0.8856 12.3668 -0.875 12Q-0.8856 11.6332 -0.6187 11.3813Q-0.3668 11.1144 0 11.125L5.3 11.125Q6.1802 11.125 6.8026 10.5026Q7.425 9.8802 7.425 9L7.425 6.0552Q7.4242 6.0279 7.425 6Q7.4242 5.9721 7.425 5.9448L7.425 3Q7.425 2.1198 6.8026 1.4974Q6.1802 0.875 5.3 0.875L0 0.875Q-0.3668 0.8856 -0.6187 0.6187Q-0.8856 0.3668 -0.875 0Q-0.8856 -0.3668 -0.6187 -0.6187Q-0.3668 -0.8856 0 -0.875Z" fill-rule="evenodd"/></svg>