<svg xmlns="http://www.w3.org/2000/svg" viewBox="0 0 32 32" fill="none" role="img" aria-label="kkŚ Deimos">
  <defs>
    <radialGradient id="mars" cx="35%" cy="35%" r="65%">
      <stop offset="0%" stop-color="#e07a52"/>
      <stop offset="100%" stop-color="#8f3b28"/>
    </radialGradient>
    <radialGradient id="deimos" cx="38%" cy="32%" r="68%">
      <stop offset="0%" stop-color="#f0e6dc"/>
      <stop offset="55%" stop-color="#c9b5a4"/>
      <stop offset="100%" stop-color="#8f7d70"/>
    </radialGradient>
    <linearGradient id="tide" x1="0" y1="0" x2="1" y2="1">
      <stop offset="0%" stop-color="#d96b45"/>
      <stop offset="100%" stop-color="#b84a32"/>
    </linearGradient>
  </defs>
  <!-- Mars -->
  <circle cx="23.5" cy="8.5" r="6.5" fill="url(#mars)" opacity="0.92"/>
  <circle cx="21.8" cy="7.2" r="1.1" fill="#f2b59a" opacity="0.35"/>
  <circle cx="24.6" cy="9.8" r="0.7" fill="#6f2d1f" opacity="0.25"/>
  <!-- Tidal arcs -->
  <path d="M5 18.5c3.2-4.8 8.8-7.2 14.2-6.1" stroke="url(#tide)" stroke-width="1.6" stroke-linecap="round" opacity="0.85"/>
  <path d="M4 22.2c4.6-6.4 12.4-9.2 19.4-7.1" stroke="url(#tide)" stroke-width="1.4" stroke-linecap="round" opacity="0.55"/>
  <path d="M6.5 14.8c2.4-2.8 6.2-4.2 10.1-3.5" stroke="url(#tide)" stroke-width="1.2" stroke-linecap="round" opacity="0.4"/>
  <!-- Deimos -->
  <ellipse cx="13.5" cy="19.5" rx="5.2" ry="4.6" fill="url(#deimos)"/>
  <circle cx="11.4" cy="18.2" r="0.75" fill="#9a8778" opacity="0.55"/>
  <circle cx="14.8" cy="20.1" r="0.55" fill="#9a8778" opacity="0.45"/>
  <circle cx="13.1" cy="21.3" r="0.4" fill="#9a8778" opacity="0.35"/>
  <!-- Crescent highlight -->
  <path d="M10.2 17.2c1.4-2.2 4.2-3.4 6.8-2.8" stroke="#fff8f2" stroke-width="0.9" stroke-linecap="round" opacity="0.55"/>
</svg>
