<?xml version="1.0" encoding="utf-8" ?><svg xmlns="http://www.w3.org/2000/svg" xmlns:xlink="http://www.w3.org/1999/xlink" width="32" height="32"><path fill="#2AA876" transform="matrix(1 0 0 1 7.33332 6.13372)" d="M19.8213 9.9973Q20.1184 7.2728 19.0783 4.7546Q18.9046 4.2972 18.4475 4.1226Q18.0013 3.922 17.5546 4.1217Q17.0972 4.2954 16.9226 4.7525Q16.722 5.1987 16.9217 5.6454Q17.7342 7.6125 17.5017 9.7443Q17.2789 11.7869 16.1588 13.5381Q15.036 15.2936 13.2981 16.3039Q11.4697 17.3667 9.3333 17.3667Q5.9166 17.3667 3.5416 14.9917Q1.1667 12.6168 1.1667 9.2Q1.1667 6.2004 3.0701 3.9232Q4.9487 1.6759 7.8118 1.1473Q8.2953 1.0723 8.561 0.6615Q8.8499 0.2666 8.7473 -0.2118Q8.6723 -0.6953 8.2615 -0.961Q7.8666 -1.2499 7.3882 -1.1473Q3.6979 -0.466 1.2799 2.4268Q-1.1667 5.3536 -1.1667 9.2Q-1.1667 11.3513 -0.3489 13.3029Q0.4429 15.1928 1.8917 16.6416Q3.3405 18.0904 5.2304 18.8823Q7.182 19.7 9.3333 19.7Q12.0987 19.7 14.4707 18.3211Q16.6971 17.0269 18.1245 14.7953Q19.5391 12.5835 19.8213 9.9973Z" fill-rule="evenodd"/><path fill="#2AA876" transform="matrix(1 0 0 1 20.6667 6)" d="M6 -1.1667L0 -1.1667Q-0.4891 -1.1807 -0.825 -0.825Q-1.1807 -0.4891 -1.1667 0Q-1.1807 0.4891 -0.825 0.825Q-0.4891 1.1807 0 1.1667L4.8333 1.1667L4.8333 6Q4.8193 6.4891 5.175 6.825Q5.5109 7.1807 6 7.1667Q6.4891 7.1807 6.825 6.825Q7.1807 6.4891 7.1667 6L7.1667 0Q7.1807 -0.4891 6.825 -0.825Q6.4891 -1.1807 6 -1.1667Z" fill-rule="evenodd"/><circle fill="#2AA876" transform="matrix(1 0 0 1 13.6667 12.333)" cx="3" cy="3" r="3"/></svg>