<?xml version="1.0" encoding="utf-8" ?><svg xmlns="http://www.w3.org/2000/svg" xmlns:xlink="http://www.w3.org/1999/xlink" width="24" height="24"><circle fill="none" stroke="#0F1B2D" stroke-width="2.25" transform="matrix(1 0 0 1 8 4.5)" cx="4" cy="4" r="4"/><path fill="currentColor" transform="matrix(1 0 0 1 4.5 14)" d="M1.3077 0.9783Q-1.125 3.1793 -1.125 7Q-1.1386 7.4716 -0.7955 7.7955Q-0.4716 8.1386 0 8.125Q0.4716 8.1386 0.7955 7.7955Q1.1386 7.4716 1.125 7Q1.125 4.1778 2.8173 2.6467Q4.4992 1.125 7.5 1.125Q10.5008 1.125 12.1827 2.6467Q13.875 4.1778 13.875 7Q13.8614 7.4716 14.2045 7.7955Q14.5284 8.1386 15 8.125Q15.4716 8.1386 15.7955 7.7955Q16.1386 7.4716 16.125 7Q16.125 3.1793 13.6923 0.9783Q11.3676 -1.125 7.5 -1.125Q3.6324 -1.125 1.3077 0.9783Z" fill-rule="evenodd"/></svg>