<?xml version="1.0" encoding="utf-8" ?><svg xmlns="http://www.w3.org/2000/svg" xmlns:xlink="http://www.w3.org/1999/xlink" width="32" height="32"><path fill="#FF8A00" transform="matrix(1 0 0 1 6 4.66699)" d="M13.2682 6.6086L11.1144 -0.3452Q10.9832 -0.8165 10.5439 -1.0321Q10.1178 -1.2726 9.6548 -1.1144Q9.378 -1.0308 9.175 -0.825Q8.9692 -0.622 8.8856 -0.3452L6.7318 6.6086L-0.3573 8.8894Q-0.8272 9.0258 -1.038 9.4673Q-1.2738 9.8961 -1.1106 10.3573Q-1.0259 10.6266 -0.825 10.825Q-0.6266 11.0259 -0.3573 11.1106L6.7318 13.3914L8.8856 20.3452Q9.0168 20.8165 9.4561 21.0321Q9.8822 21.2726 10.3452 21.1144Q10.622 21.0308 10.825 20.825Q11.0308 20.622 11.1144 20.3452L13.2682 13.3914L20.3573 11.1106Q20.8272 10.9742 21.038 10.5327Q21.2738 10.1039 21.1106 9.6427Q21.0259 9.3734 20.825 9.175Q20.6266 8.9741 20.3573 8.8894L13.2682 6.6086ZM10 3.9432L11.2189 7.8785Q11.3016 8.152 11.5039 8.3538Q11.7034 8.5583 11.976 8.6439L16.1908 10L11.976 11.3561Q11.7034 11.4417 11.5039 11.6462Q11.3016 11.848 11.2189 12.1215L10 16.0568L8.7811 12.1215Q8.6984 11.848 8.4961 11.6462Q8.2966 11.4417 8.024 11.3561L3.8092 10L8.024 8.6439Q8.2966 8.5583 8.4961 8.3538Q8.6984 8.152 8.7811 7.8785L10 3.9432Z" fill-rule="evenodd"/><path fill="#FF8A00" transform="matrix(1 0 0 1 22 5.99935)" d="M3.6667 1.6667L3.6667 0Q3.6787 -0.4192 3.3738 -0.7071Q3.0859 -1.0121 2.6667 -1Q2.2475 -1.0121 1.9596 -0.7071Q1.6546 -0.4192 1.6667 0L1.6667 1.6667L0 1.6667Q-0.4192 1.6546 -0.7071 1.9596Q-1.0121 2.2475 -1 2.6667Q-1.0121 3.0859 -0.7071 3.3738Q-0.4192 3.6787 0 3.6667L1.6667 3.6667L1.6667 5.3333Q1.6546 5.7525 1.9596 6.0404Q2.2475 6.3454 2.6667 6.3333Q3.0859 6.3454 3.3738 6.0404Q3.6787 5.7525 3.6667 5.3333L3.6667 3.6667L5.3333 3.6667Q5.7525 3.6787 6.0404 3.3738Q6.3454 3.0859 6.3333 2.6667Q6.3454 2.2475 6.0404 1.9596Q5.7525 1.6546 5.3333 1.6667L3.6667 1.6667Z" fill-rule="evenodd"/></svg>